<svg xmlns="http://www.w3.org/2000/svg" width="114" height="24" viewBox="0 0 114 24">
    <g fill="#193B47" fill-rule="nonzero">
        <path d="M82.879 7.031A5.945 5.945 0 0 0 80.814 5.8a8.639 8.639 0 0 0-5.385 0 5.936 5.936 0 0 0-2.065 1.231 5.474 5.474 0 0 0-1.347 1.942 6.41 6.41 0 0 0-.448 2.511v6.032c0 1.937.592 3.462 1.764 4.533 1.17 1.071 2.755 1.6 4.775 1.604 2.02.005 3.635-.546 4.793-1.604l.04-.04v.08-.031l.57 1.39h1.14V11.477a6.459 6.459 0 0 0-.448-2.512 5.544 5.544 0 0 0-1.324-1.933zm-.058 10.485a6.605 6.605 0 0 1-.202 1.56 3.476 3.476 0 0 1-.696 1.382 3.773 3.773 0 0 1-1.41 1.022 5.859 5.859 0 0 1-2.387.4 5.786 5.786 0 0 1-2.379-.404 3.832 3.832 0 0 1-1.41-1.014 3.445 3.445 0 0 1-.695-1.39 6.544 6.544 0 0 1-.202-1.556v-6.04c0-1.396.409-2.485 1.221-3.24.812-.756 1.97-1.13 3.465-1.138 1.494-.01 2.693.39 3.478 1.138a4.243 4.243 0 0 1 1.217 3.24v6.04zM113.022 20.898a4.204 4.204 0 0 1-3.003 1.044 3.02 3.02 0 0 1-2.383-.889c-.525-.604-.781-1.613-.781-3.11V7.212h5.754V5.591h-5.755V.142h-1.794V18.05c0 1.867.421 3.28 1.256 4.191s2.087 1.4 3.685 1.4c1.598 0 2.805-.391 3.676-1.156l-.655-1.586zM96.985 21.831V5.573H90.29v1.6h4.879V21.84h-4.88v1.596h10.324c.052-.005.105-.012.157-.023v-1.56a1.481 1.481 0 0 0-.157-.022h-3.627zM63.35 14.04l-5.64-1.538a3.029 3.029 0 0 1-1.527-.964 2.152 2.152 0 0 1-.512-1.37 2.792 2.792 0 0 1 .395-1.595c.25-.38.599-.688 1.01-.889a4.18 4.18 0 0 1 1.405-.444 9.516 9.516 0 0 1 1.558-.12 6.537 6.537 0 0 1 3.491.818c.84.51 1.28 1.369 1.347 2.542v.049h1.764v-.062c-.05-1.703-.678-3-1.863-3.854-1.185-.853-2.742-1.23-4.654-1.23-.79-.006-1.58.075-2.352.24-.707.148-1.378.429-1.98.826a4.206 4.206 0 0 0-1.373 1.493 4.458 4.458 0 0 0-.525 2.222c-.02.903.28 1.784.848 2.49.61.732 1.451 1.24 2.388 1.44l5.664 1.586a2.919 2.919 0 0 1 1.634 1.08 3.05 3.05 0 0 1 .534 1.689 3.145 3.145 0 0 1-.449 1.778c-.271.423-.65.768-1.1 1a4.58 4.58 0 0 1-1.557.444 12.132 12.132 0 0 1-3.676-.075 4.514 4.514 0 0 1-1.49-.578 2.893 2.893 0 0 1-.965-.996 2.945 2.945 0 0 1-.359-1.55v-.09h-1.795a.682.682 0 0 0 0 .094c.036 1.724.669 3.022 1.876 3.862 1.207.84 2.77 1.262 4.7 1.262.852.002 1.703-.078 2.54-.24a5.958 5.958 0 0 0 2.14-.844 4.615 4.615 0 0 0 1.455-1.623c.368-.765.55-1.605.53-2.453.075-2.096-1.364-3.95-3.43-4.413l-.031.013zM47.09 7.031A5.945 5.945 0 0 0 45.026 5.8a8.639 8.639 0 0 0-5.386 0 5.936 5.936 0 0 0-2.065 1.231 5.474 5.474 0 0 0-1.346 1.942 6.41 6.41 0 0 0-.45 2.511v6.032c0 1.937.593 3.462 1.765 4.533 1.171 1.071 2.755 1.6 4.775 1.604.53 0 1.058-.043 1.58-.129h.04l.144-.026.157-.031.112-.027.265-.062h.036l.247-.071h.045l.256-.09a5.686 5.686 0 0 0 1.499-.804l.18-.146.03-.023.176-.155a5.08 5.08 0 0 0 1.225-1.72l-1.607-.96c-.131.377-.324.73-.57 1.044l-.036.05a3.211 3.211 0 0 1-.678.613 4.37 4.37 0 0 1-.727.404l-.134.058H44.5l-.161.058h-.04a5.658 5.658 0 0 1-.418.106c-.52.105-1.05.154-1.58.147a5.786 5.786 0 0 1-2.379-.405 3.832 3.832 0 0 1-1.409-1.013 3.445 3.445 0 0 1-.696-1.391 6.544 6.544 0 0 1-.201-1.556V15.57h11.22v-4.093a6.459 6.459 0 0 0-.449-2.512 5.543 5.543 0 0 0-1.297-1.933zm-.058 6.667h-9.38v-2.222c0-1.396.408-2.485 1.22-3.24.813-.756 1.97-1.13 3.465-1.138 1.495-.01 2.693.39 3.478 1.138.854.859 1.3 2.036 1.23 3.24l-.013 2.222zM24.532 5.378a6.387 6.387 0 0 0-1.53.2 6.903 6.903 0 0 0-1.53.529c-.48.223-.924.514-1.32.862a3.86 3.86 0 0 0-.386.378l-.938-1.778h-.848v17.924h1.795v-12.07c-.016-.593.1-1.182.341-1.725a4.102 4.102 0 0 1 2.487-2.222 5.665 5.665 0 0 1 1.938-.316 5.886 5.886 0 0 1 2.357.404 4.074 4.074 0 0 1 1.418 1.023c.332.407.574.88.71 1.386.122.515.187 1.04.192 1.57v12h1.795v-12c0-1.956-.574-3.472-1.705-4.525-1.131-1.054-2.76-1.64-4.776-1.64zM11.364 7.031A5.846 5.846 0 0 0 9.3 5.8a8.607 8.607 0 0 0-5.386 0 5.914 5.914 0 0 0-2.07 1.231A5.474 5.474 0 0 0 .499 8.973a6.424 6.424 0 0 0-.449 2.511v6.036c0 1.938.593 3.467 1.764 4.538 1.172 1.07 2.76 1.595 4.78 1.6 2.02 0 3.631-.542 4.78-1.6 1.149-1.058 1.76-2.6 1.76-4.538v-6.044a6.507 6.507 0 0 0-.45-2.512 5.482 5.482 0 0 0-1.319-1.933zm-.058 10.489a6.566 6.566 0 0 1-.207 1.556c-.121.51-.36.986-.695 1.39a3.755 3.755 0 0 1-1.41 1.018 5.886 5.886 0 0 1-2.378.405 5.886 5.886 0 0 1-2.384-.405 3.79 3.79 0 0 1-1.409-1.017 3.542 3.542 0 0 1-.696-1.391 6.544 6.544 0 0 1-.202-1.556v-6.044c0-1.396.409-2.485 1.226-3.24.817-.756 1.97-1.13 3.465-1.138 1.494 0 2.661.39 3.464 1.138.804.746 1.226 1.844 1.226 3.24v6.044z"/>
    </g>
</svg>
