<svg xmlns="http://www.w3.org/2000/svg" width="52" height="52" viewBox="0 0 52 52">
    <g fill="none" fill-rule="evenodd">
        <rect width="49.75" height="49.75" x="1.125" y="1.125" fill-rule="nonzero" stroke="#003846" stroke-width="2.25" rx="6"/>
        <g fill="#003846">
            <path d="M33.769 12.813a.833.833 0 0 0-.81.81.756.756 0 0 0 .778.778 3.787 3.787 0 0 1 3.89 3.89.756.756 0 0 0 .778.778.833.833 0 0 0 .81-.81 5.301 5.301 0 0 0-5.446-5.446z"/>
            <path d="M33.833 9.636a.833.833 0 0 0-.81.81.756.756 0 0 0 .778.778 6.816 6.816 0 0 1 7.002 7.003.756.756 0 0 0 .778.778.833.833 0 0 0 .81-.81c.097-4.816-3.742-8.655-8.558-8.559zM18.649 12.813a.833.833 0 0 1 .81.81.756.756 0 0 1-.778.778 3.787 3.787 0 0 0-3.89 3.89.756.756 0 0 1-.778.778.833.833 0 0 1-.81-.81 5.301 5.301 0 0 1 5.446-5.446z"/>
            <path d="M18.585 9.636a.833.833 0 0 1 .81.81.756.756 0 0 1-.778.778 6.816 6.816 0 0 0-7.002 7.003.756.756 0 0 1-.778.778.833.833 0 0 1-.81-.81c-.097-4.816 3.742-8.655 8.558-8.559zM17.722 38.939a.833.833 0 0 0 .81-.81.756.756 0 0 0-.778-.778 3.787 3.787 0 0 1-3.89-3.89.756.756 0 0 0-.778-.779.833.833 0 0 0-.81.81 5.301 5.301 0 0 0 5.446 5.447z"/>
            <path d="M17.658 42.115a.833.833 0 0 0 .81-.81.756.756 0 0 0-.778-.778 6.816 6.816 0 0 1-7.002-7.003.756.756 0 0 0-.779-.778.833.833 0 0 0-.81.81c-.096 4.816 3.743 8.656 8.559 8.559z"/>
            <g>
                <path d="M33.769 38.939a.833.833 0 0 1-.81-.81.756.756 0 0 1 .778-.778 3.787 3.787 0 0 0 3.89-3.89.756.756 0 0 1 .778-.779.833.833 0 0 1 .81.81 5.301 5.301 0 0 1-5.446 5.447z"/>
                <path d="M33.833 42.115a.833.833 0 0 1-.81-.81.756.756 0 0 1 .778-.778 6.816 6.816 0 0 0 7.002-7.003.756.756 0 0 1 .778-.778.833.833 0 0 1 .81.81c.097 4.816-3.742 8.656-8.558 8.559z"/>
            </g>
            <path fill-rule="nonzero" d="M28.995 21.51c1.283 0 2.323 1.004 2.323 2.245v4.49c0 1.24-1.04 2.246-2.323 2.246H24.35c-1.283 0-2.323-1.005-2.323-2.246v-4.49c0-1.24 1.04-2.246 2.323-2.246h4.645zm0-1.685H24.35c-2.246 0-4.066 1.76-4.066 3.93v4.49c0 2.17 1.82 3.93 4.066 3.93h4.645c2.245 0 4.065-1.76 4.065-3.93v-4.49c0-2.17-1.82-3.93-4.065-3.93z"/>
        </g>
    </g>
</svg>
